<?xml version="1.0" encoding="utf-8"?>
<!-- Generator: Adobe Illustrator 24.3.0, SVG Export Plug-In . SVG Version: 6.00 Build 0)  -->
<svg version="1.1" id="_x3C_Layer_x3E_" xmlns="http://www.w3.org/2000/svg" xmlns:xlink="http://www.w3.org/1999/xlink" x="0px"
	 y="0px" viewBox="0 0 330.4 85.2" style="enable-background:new 0 0 330.4 85.2;" xml:space="preserve">
<style type="text/css">
	.st0{fill:#0066AC;}
	.st1{fill:#BB8A0B;}
	.st2{fill:#FFFFFF;}
</style>
<g>
	<g>
		<g>
			<polygon class="st0" points="30.8,10.3 21.7,14.9 22.2,16.1 26.1,14.1 27.5,16.7 28.9,16 27.5,13.4 31.4,11.4 			"/>
			<path class="st0" d="M25.2,10.6c1.3,0.8,2.7,0.1,2.7,0.1L30,9.6l-0.5-1l-1.6,0.8c0,0-1.2,0.7-2.2-0.3l3.2-1.6l-0.6-1.1l-8.4,4.3
				l0.6,1.1l3.2-1.6c0.3,1.4-1,2-1,2L21.1,13l0.5,1l2.1-1.1C23.7,12.9,25.2,12.1,25.2,10.6z"/>
		</g>
		<g>
			<polygon class="st0" points="15.2,16.7 14.1,18.1 13,17.2 12,18.4 19,23.8 19.9,22.5 15.1,18.8 16.2,17.4 			"/>
			<path class="st0" d="M10.7,20.4c-0.9,0.4-1.6,1.5-1.6,1.5s-0.8,1-1,2c0,0-0.4,1.6,1,2.8c1.5,1.1,3,0.3,3,0.3
				c0.8-0.4,1.6-1.5,1.6-1.5s0.8-1,1-2c0,0,0.4-1.6-1-2.8C12.2,19.6,10.7,20.4,10.7,20.4z M13.3,23.5c-0.1,0.5-0.6,1.1-0.6,1.1
				s-0.5,0.6-0.9,0.9c0,0-0.8,0.5-1.7-0.1c-0.8-0.7-0.5-1.6-0.5-1.6c0.1-0.5,0.6-1.1,0.6-1.1s0.5-0.6,0.9-0.9c0,0,0.8-0.5,1.7,0.1
				C13.5,22.6,13.3,23.5,13.3,23.5z"/>
		</g>
		<path class="st0" d="M45.3,4.2v1.5h-1.1V4.2h-1.6v4.5h-3.8l-0.1-0.1V5.4h3V4.1h-4.5l0,0l0,0v4.8l0,0c0,0.5,0.4,0.9,0.9,0.9l0,0
			h4.4v3h1.6v-6h1.1v6h1.6V4.1h-1.5V4.2z"/>
		<path class="st0" d="M71.6,27.6l4.7-3.7l0,0l0,0c0.4-0.3,0.5-0.8,0.2-1.2l0,0l-4.7-5.9l-1,0.8l4.3,5.4l-4.4,3.5l-0.9-1.2l3.3-2.6
			l-0.9-1.1l-3.3,2.6l-0.8-1l3.3-2.6l-0.9-1.1l-3.3,2.6L66,20.6l-1,0.8l6.4,8.1l1-0.8L71.6,27.6z"/>
		<g>
			<polygon class="st0" points="64.7,11.9 63.2,11.1 63.9,9.8 62.6,9.1 60.7,12.9 62,13.5 62.7,12.1 64.2,12.9 			"/>
			<path class="st0" d="M61.3,15c0.2-0.5,0-1-0.4-1.2l0,0l-7.4-3.6l-0.5,1l6.9,3.4l-1.2,2.5l1.3,0.6L61.3,15L61.3,15L61.3,15z"/>
			<path class="st0" d="M54.7,7.7c0,0-0.3,0.6-0.2,1.1c0,0,0,0.7,0.7,1.3c0.3,0.3,0.8,0.6,1.5,0.9c0.7,0.3,1.2,0.5,1.6,0.6
				c0.9,0.1,1.4-0.3,1.4-0.3c0.4-0.3,0.7-0.9,0.7-0.9s0.2-0.5,0.2-0.9l0.7,0.3l0.6-1.1l-2.7-1.3l0.3-0.6l-1.3-0.6l-0.3,0.6l-2.7-1.3
				l-0.6,1.1l0.7,0.3C55,7.2,54.7,7.7,54.7,7.7z M58.8,10.3c0,0-0.3,0.2-0.7,0.1c-0.2,0-0.7-0.3-1-0.4c-0.3-0.2-0.8-0.4-0.9-0.5
				c-0.3-0.3-0.3-0.6-0.3-0.6c0-0.2,0.1-0.5,0.1-0.5s0.1-0.3,0.3-0.4c0,0,0.3-0.2,0.7-0.1c0.2,0,0.7,0.3,1,0.4
				c0.3,0.2,0.8,0.4,1,0.6c0.3,0.3,0.3,0.6,0.3,0.6c0,0.2-0.1,0.5-0.1,0.5S59,10.2,58.8,10.3z"/>
		</g>
		<g>
			<path class="st0" d="M7.3,48.3L7,45.8l-2.6-0.6l-0.1-0.9l5.9,1.6c0.4,0.1,0.8,0.2,0.9-0.3l0,0l0.2,1.6l-4.9,2.7
				c-0.5,0.3-1.1,0.5-1.3,1.2l-0.2-1.5L7.3,48.3z M10.4,46.7L7.8,46L8,48L10.4,46.7z"/>
			<path class="st0" d="M10.9,51.9c0.4-0.1,1.2-0.3,1.2-0.8l0,0l0.6,1.8l0,0c-0.3-0.4-1-0.1-1.5,0l-5.5,1.7c-1,0.3-1.8-0.1-2.3-1.3
				l0,0c1,0.6,1.5,0.5,2.6,0.2L10.9,51.9z"/>
			<path class="st0" d="M13.5,62.9c-1.9,0.8-3.9-0.2-4.7-2.1C8,59,8.7,56.9,10.6,56.1c1.8-0.7,3.9,0.2,4.7,2.2
				C16.1,60.2,15.1,62.2,13.5,62.9z M11.1,57.1c-1.3,0.5-2.3,2-1.7,3.5c0.6,1.4,2,1.9,3.4,1.3s2.3-2,1.7-3.4
				C13.9,57,12.5,56.5,11.1,57.1z"/>
			<path class="st0" d="M16.7,70.6l0.5-0.5c-0.7,0.1-1.5-0.3-2-0.8s-0.8-1.1-0.8-1.8c0-0.8,0.5-1.3,1-1.8l1.9-1.9
				c0.3-0.3,0.9-0.8,0.7-1.3l1.1,1l-1,1l-1.9,1.9c-0.9,0.9-1,1.8-0.3,2.5c0.4,0.4,1,0.6,1.5,0.5c0.4-0.1,0.5-0.2,0.8-0.5l2.1-2.2
				c0.3-0.3,0.9-0.8,0.7-1.3l1.1,1.1l-1,1l-3.7,3.7L16.7,70.6z"/>
			<path class="st0" d="M29.6,78.4l0.2-0.6c-0.6,0.4-1.5,0.3-2.1,0s-1.2-0.7-1.4-1.3c-0.3-0.7,0-1.4,0.3-2l1-2.5
				c0.2-0.4,0.5-1.1,0.1-1.5l1.4,0.6l-0.6,1.3l-1,2.5c-0.5,1.2-0.2,2,0.7,2.4c0.5,0.2,1.1,0.2,1.6-0.1c0.3-0.2,0.4-0.4,0.5-0.8
				l1.2-2.8c0.2-0.4,0.5-1.1,0.1-1.5l1.4,0.6L32.4,74l-2,4.8L29.6,78.4z"/>
			<path class="st0" d="M41.4,75.3l-0.6,5.6c-0.7-0.3-1-0.7-1.3-1.3l-2.9-4.8L36,80l-0.7-0.1l0.6-5.3c0.1-0.6,0.1-1-0.4-1.3l0,0
				l1.5,0.2l0,0c0,0.1,0.1,0.2,0.1,0.3l0.1,0.2l3.1,5.1l0.4-3.8c0.1-0.6,0.1-1-0.4-1.4l1.3,0.1L41.4,75.3z"/>
			<path class="st0" d="M44.7,80.6l-0.3-5.2c0-0.5,0-1.2-0.5-1.4l1.5-0.1l0.1,1.4l0.3,5.2L44.7,80.6z"/>
			<path class="st0" d="M75,62.6l-4.5-2.7c-0.4-0.2-1-0.7-1.4-0.3l0.7-1.3L71,59l4.5,2.7L75,62.6z"/>
			<path class="st0" d="M52,74.5c0.1-0.8,0.2-1.6-0.4-1.7l0,0l1.5-0.3l-1,7.4c-0.8-0.3-1-0.3-1.5-1l-2.4-3.7c-0.3-0.5-0.6-1-1.1-1.2
				l0,0l1.4-0.3v0.1c0,0.2,0.3,0.7,0.5,0.8l2.6,3.9L52,74.5z"/>
			<path class="st0" d="M57.3,76.3l-1.7-3.4c-0.2-0.4-0.5-1.1-1-1l0,0l2.9-1.4c0.2-0.1,0.3-0.1,0.4-0.2l0,0l0.5,1.1l0,0
				c-0.4-0.2-0.8,0-1.2,0.2c-0.3,0.2-0.6,0.3-0.9,0.5l0.8,1.7l1.1-0.5c0.1-0.1,0.3-0.1,0.4-0.3l0,0l0.5,1l0,0
				c-0.3-0.2-0.7,0-0.9,0.1l-0.7,0.3l1.1,2.1l1.2-0.5c0.6-0.2,1.2-0.7,1.4-1.4l0,0l0.2,1.4L58,77.7L57.3,76.3z"/>
			<path class="st0" d="M64.7,73.6l-3.2-4.1c-0.3-0.4-0.7-1-1.2-0.8l0,0l1.9-1.5c1.1-0.8,2.1-0.7,2.6,0s0.4,1.7-0.2,2.4l2.3,0.5
				c0.7,0.2,1.5,0.2,2.2,0.1l-0.7,0.6c-0.4,0.3-0.8,0.4-1.2,0.3l-1.9-0.4l-1.6-0.6c0.6-0.6,1.1-1.5,0.5-2.2
				c-0.4-0.6-1.2-0.5-1.7-0.1c-0.2,0.2-0.3,0.3-0.5,0.5l3.6,4.7L64.7,73.6z"/>
			<path class="st0" d="M68.9,62.2c-0.6,0-1.1,0.4-1.5,0.8s-0.7,1.1-0.1,1.6c1.1,0.9,3.3-1.8,4.7-0.6c0.8,0.7,0.9,2.2-0.1,3.4
				c-0.4,0.5-0.8,0.9-1.4,1.2L69.3,68c0.8-0.1,1.5-0.6,2-1.2c0.4-0.4,0.7-1.3,0.1-1.8c-1.2-1-3.2,1.9-4.9,0.5
				c-1-0.8-0.5-2.1,0.3-3.1c0.3-0.4,0.7-0.7,1.1-1L68.9,62.2z"/>
			<path class="st0" d="M80.1,49l-2.9-0.4l-2.9,1.3c-0.5,0.2-0.8,0.4-1.2,0.8l0.2-1.5l3.1-1.3l-1.7-1.5c-0.2-0.2-0.7-0.5-1,0l0,0
				l0.3-1.7l3.3,3l2.9,0.4L80.1,49z"/>
			<path class="st0" d="M70.9,56.7l0.9,0.7l0,0c-0.2-0.4-0.1-0.9,0.1-1.3l0.3-0.8l5.5,2.2l0.4-1l-5.5-2.2l0.3-0.8
				c0.1-0.3,0.3-0.7,0.7-0.7l0,0l-0.9-0.7L70.9,56.7z"/>
		</g>
		<path class="st0" d="M42.6,0C19.1,0,0,19.1,0,42.6c0,23.6,19.1,42.6,42.6,42.6c23.6,0,42.6-19.1,42.6-42.6
			C85.2,19.1,66.1,0,42.6,0z M42.6,84C19.8,84,1.3,65.5,1.3,42.6c0-22.8,18.5-41.3,41.3-41.3C65.5,1.3,84,19.8,84,42.6
			C83.9,65.5,65.4,84,42.6,84z"/>
		<path class="st0" d="M70.3,42.6c0,15.3-12.4,27.7-27.7,27.7S14.9,57.9,14.9,42.6c0-15.3,12.4-27.7,27.7-27.7
			C57.9,15,70.3,27.4,70.3,42.6z"/>
		<path class="st0" d="M10.2,35.6c0,0.6-0.5,1.1-1.1,1.1S8,36.2,8,35.6s0.5-1.2,1.1-1.2C9.7,34.5,10.2,35,10.2,35.6z"/>
		<path class="st0" d="M77.4,35.6c0,0.6-0.5,1.1-1.1,1.1s-1.1-0.5-1.1-1.1s0.5-1.2,1.1-1.2C76.9,34.5,77.4,35,77.4,35.6z"/>
		<g>
			<path class="st1" d="M37.6,19L26,36c0,0-2.8,3.5-0.5,8.1l6.1,9.3c0,0,1,1.8,3.2,1.8h4.5c0,0-0.7-0.3-1.2-0.9l-6.8-10.4
				c0,0-1.1-1.8-1-3.6c0,0,0.1-1.6,1-3.1l6.3-9.5l7.5,11.6c0,0,0.9,1.3,0,2.3c0,0-0.5,0.6-1.9,0.1l2.6,4c0,0,0.5,0.7,1.2,0.7
				c0,0,0.6,0,1.1-0.6l1.9-3.1c0,0,1.4-1.9-0.1-4.8L37.6,19z"/>
			<path class="st1" d="M52.9,53.8l5.8-8.7c0,0,2.8-3.5,0.5-8.1L48.8,20.9c0,0-1-1.8-3.2-1.8h-4.5c0,0,0.7,0.3,1.2,0.9l10.9,16.6
				c0,0,1.5,2.2,1.3,4.1c0,0-0.1,1.6-1,3.1l-3.8,5.9c-0.6,0.8-1.3,0.8-1.3,0.8h-2.3c-0.8-0.1-1.3-1-1.3-1l-5.2-7.9
				c0,0-0.8-1.3,0-2.3c0,0,0.6-0.6,1.9-0.1l-2.6-4c0,0-0.5-0.6-1.2-0.6c0,0-0.6,0-1.1,0.6l-1.9,3.1c0,0-1.4,1.9,0.1,4.8l7,10.8
				c0,0,1,1.5,2.4,1.5h6.3C50.4,55.3,51.9,55.4,52.9,53.8z"/>
		</g>
		<g>
			<path class="st2" d="M35.5,65.5h-0.9v-6l-1.1,0.7v-0.9c0.2-0.1,0.9-0.6,1.2-0.8h0.8V65.5z"/>
			<path class="st2" d="M41.6,62c0,1.8,0,3.6-1.9,3.6c-1.1,0-1.7-0.7-1.7-1.8h0.9c0,0.5,0.2,1.1,0.8,1.1c0.9,0,1-1,1-2.8l0,0
				c-0.2,0.5-0.7,0.7-1.2,0.7c-0.6,0-1.6-0.3-1.6-2.2c0-1.6,0.9-2.1,1.9-2.1C41.6,58.4,41.6,60.1,41.6,62z M38.8,60.5
				c0,0.7,0.1,1.5,0.9,1.5c0.8,0,0.9-0.8,0.9-1.5c0-0.6-0.1-1.5-0.9-1.5S38.8,59.9,38.8,60.5z"/>
			<path class="st2" d="M42.7,58.5h3.6v0.8l-1.9,6.2h-1.1l2-6.2h-2.7L42.7,58.5L42.7,58.5z"/>
			<path class="st2" d="M49,61.4c0.8,0.1,1.4-0.3,1.4-1.2c0-0.6-0.3-1.1-1-1.1c-0.8,0-0.9,0.6-0.9,1.1h-0.9
				c-0.1-1.2,0.5-1.9,1.8-1.9c1.2,0,1.9,0.6,1.9,1.8c0,1.3-1,1.5-1.4,1.6l0,0c1.1,0.2,1.5,0.7,1.5,1.8c0,1.4-0.7,2-2.1,2
				c-2,0-1.8-1.7-1.8-2.1h0.9c0,0.7,0.1,1.3,1,1.3c0.8,0,1.1-0.5,1.1-1.3c0-1.1-0.4-1.4-1.5-1.4V61.4z"/>
		</g>
	</g>
</g>
<g>
	<g>
		<path d="M114.8,63.7h-7.4l-2.7,7.3h-2.5l6.6-16.5c0.4-1.1,1-2.3-0.4-2.7v-0.1h4.6l6.1,15.1c0.7,1.7,1.2,3.3,2.9,4.3h-4.4
			L114.8,63.7z M111,54.2l-2.9,7.4h5.8L111,54.2z"/>
		<path d="M123.4,55.8c0-1.4,0.2-3.5-1.3-4.1v-0.1h5.6v0.1c-1.5,0.6-1.3,2.7-1.3,4.1v16.7c0,3.1-2,4.9-5.7,5.2l-0.1-0.1
			c2.5-2.2,2.8-3.8,2.8-7V55.8z"/>
		<path d="M150.1,61.1c0,6-5,10.4-10.8,10.4s-10.7-4.2-10.7-10.2c0-5.6,4.9-10.3,11-10.1C145.7,51.1,150.1,55.8,150.1,61.1z
			 M131.9,61c0,4.1,2.9,8.4,7.5,8.4c4.5,0,7.3-3.3,7.3-7.6c0-4.3-2.7-8.4-7.4-8.4C134.8,53.3,131.9,56.6,131.9,61z"/>
		<path d="M164.4,71v-2c-1.3,1.7-3.7,2.4-5.8,2.4c-1.9,0-4-0.6-5.3-2.1c-1.6-1.7-1.5-3.7-1.5-5.8v-7.9c0-1.3,0.2-3.5-1.3-4.1h4.3
			l-0.1,4.1v7.9c0,3.9,1.6,5.7,4.7,5.7c1.6,0,3.3-0.7,4.3-2.1c0.6-0.9,0.6-1.6,0.6-2.7v-8.9c0-1.3,0.2-3.5-1.3-4.1h4.4l-0.1,4.2
			v15.2h-2.9V71z"/>
		<path d="M195.6,71v-1.9c-1.3,1.7-3.7,2.4-5.8,2.4c-1.9,0-4-0.6-5.3-2.1c-1.6-1.7-1.5-3.7-1.5-5.8v-7.9c0-1.3,0.2-3.5-1.3-4.2h4.3
			l-0.1,4.1v7.9c0,3.9,1.6,5.7,4.7,5.7c1.7,0,3.3-0.7,4.3-2.1c0.7-0.9,0.6-1.6,0.6-2.7v-8.9c0-1.3,0.2-3.5-1.3-4.2h4.4l-0.1,4.2
			v15.1h-2.9V71z"/>
		<path d="M218.2,55.5V72c-2.1-0.7-3-1.7-4.3-3.4l-10.1-12.8v15.1h-2.1V55.4c0-1.6,0-2.8-1.5-3.7v-0.1h4.3l0,0
			c0.1,0.3,0.2,0.5,0.4,0.7l0.4,0.6l10.8,13.6V55.3c0-1.6,0-2.9-1.5-3.8h3.7L218.2,55.5z"/>
		<path d="M221.7,71V55.8c0-1.4,0.2-3.5-1.3-4.1h4.3v4.1V71H221.7z"/>
		<path d="M292.4,70.9V55.7c0-1.4,0.2-3.5-1.3-4.1h4.3v4.1v15.2H292.4z"/>
		<path d="M239.5,57c0.8-2.1,1.8-4.5,0-5.2v-0.1h4.4l-7.8,20.2c-2.1-1.4-2.7-1.6-3.6-3.9l-4.4-12c-0.6-1.5-1-3.2-2.3-4.2v-0.1h4.3
			v0.4c0,0.6,0.6,2.1,0.8,2.7l4.7,12.8L239.5,57z"/>
		<path d="M246.3,66.9V55.8c0-1.4,0.2-3.5-1.3-4.1v-0.1h9.4c0.5,0,1,0,1.4-0.2h0.1v3.4h-0.1c-0.9-1.1-2.1-1.2-3.5-1.2
			c-1,0-2.1,0-3,0.2v5.5h3.5c0.5,0,0.9,0,1.3-0.2h0.1v3.1h-0.1c-0.5-0.9-1.7-0.8-2.6-0.8h-2.2v7l3.7,0.4c1.9,0.2,4-0.4,5.4-1.7h0.1
			l-1.3,3.8h-11L246.3,66.9z"/>
		<path d="M260.3,71V55.8c0-1.4,0.2-3.5-1.3-4.1v-0.1h7c3.9,0,6.1,2.1,6.1,4.7s-2.3,4.6-4.7,5.2l4.2,5.3c1.2,1.5,3.1,3.1,4.8,4.1
			h-2.7c-1.6,0-2.5-0.4-3.4-1.5l-3.6-4.4l-2.7-4.1c2.3-0.4,5.1-1.4,5.1-4.2c0-2.1-1.8-3.4-3.8-3.3c-0.7,0-1.3,0.1-2,0.2v17.3h-3V71z
			"/>
		<path d="M288.8,55.1c-1.1-1.2-3-1.9-4.6-1.9c-1.7,0-3.8,0.6-3.8,2.7c0,4,10.1,4,10.1,9.4c0,3.2-3.3,6.1-7.9,6.1
			c-1.8,0-3.6-0.3-5.3-0.9l-0.8-3.7c1.7,1.5,4.1,2.4,6.4,2.4c1.7,0,4.2-1,4.2-3.1c0-4.6-10.1-3.8-10.1-10c0-3.7,3.8-5.1,7.4-5.1
			c1.5,0,3,0.2,4.4,0.6L288.8,55.1L288.8,55.1z"/>
		<path d="M320.3,71v-8.4l-4.9-7.9c-0.8-1.3-1.4-2.3-2.8-3h4.4l5.2,8.5l3.6-5.5c0.5-0.7,1.2-2.2-0.5-2.9v-0.1h5.1l-7.2,10.9V71
			H320.3z"/>
		<path d="M297.5,51.7l-1,3.3h0.1c0.9-0.9,2.2-1.2,3.5-1.2h2.6v17.3h3V53.8h2.6c1,0,2.1,0.1,2.5,1.2h0.1l0.9-3.3H297.5z"/>
	</g>
	<g>
		<polygon points="142.2,10.5 135.8,10.5 135.8,45.8 142.2,45.8 142.2,21.5 149.3,21.5 149.3,16.4 142.2,16.4 		"/>
		<path d="M230.4,16.4H226v-5.9h-6.4v18h-15.2l-0.2-0.3V15.5h12v-5.1h-18l0,0l0,0v19.4l0,0c0,2,1.7,3.7,3.7,3.7c0,0,0,0,0.1,0h17.7
			v12.2h6.4V21.4h4.4v24.3h6.4V10.4h-6.4v6H230.4z"/>
		<polygon points="281.5,10.4 275.7,10.4 275.7,27.2 281.5,27.2 281.5,21.1 288.2,21.1 288.2,16.6 281.5,16.6 		"/>
		<polygon points="151.4,33.8 169,33.8 169,45.8 175.3,45.8 175.3,33.8 192.9,33.8 192.9,28.7 151.4,28.7 		"/>
		<path d="M172.2,19.8c3.1,5.3,9.5,5.3,9.5,5.3h9.5v-4.4h-7.4c0,0-5.7,0.2-7.3-5.2H191v-5.1h-37.9v5.1h14.7
			c-1.6,5.4-7.3,5.2-7.3,5.2h-7.3v4.4h9.5C162.7,25.1,169.1,25.1,172.2,19.8z"/>
		<path d="M326.4,38.2v-24l0,0v-0.1c0-1.9-1.5-3.5-3.4-3.7l0,0h-30.4v5.1h27.9v22.7h-6.1V21.1h-5.8v17.2h-5.3V21.1h-5.9v17.2h-8v5.1
			h41.7v-5.1h-4.7V38.2z"/>
		<path d="M126.3,11.3c-3.5-1.7-8.8-1.6-8.8-1.6s-5.4-0.1-8.8,1.6c0,0-6.2,2.6-6.4,10.2c0.2,7.7,6.4,10.2,6.4,10.2
			c3.4,1.7,8.8,1.6,8.8,1.6s5.4,0.1,8.8-1.6c0,0,6.2-2.6,6.4-10.2C132.5,13.9,126.3,11.3,126.3,11.3z M122.6,27.1
			c-2,0.9-5.1,0.9-5.1,0.9s-3.1,0.1-5.1-0.9c0,0-3.6-1.4-3.7-5.6c0.1-4.2,3.7-5.6,3.7-5.6c2-0.9,5.1-0.9,5.1-0.9s3.1-0.1,5.1,0.9
			c0,0,3.6,1.4,3.7,5.6C126.2,25.7,122.6,27.1,122.6,27.1z"/>
		<path d="M281.5,33.7c0-2-1.6-3.7-3.7-3.7l0,0h-33.2v4.7h31v11.2h5.9L281.5,33.7L281.5,33.7L281.5,33.7z"/>
		<path d="M244.8,19.2c0,0,0,2.7,1.1,4.4c0,0,1.4,2.4,4.7,3.5c1.7,0.5,3.9,0.6,6.9,0.6s5.2-0.1,6.9-0.6c3.3-1,4.7-3.5,4.7-3.5
			c1.1-1.7,1.1-4.4,1.1-4.4s0-2.1-0.8-3.8h3.1v-5.1h-12.2V7.5h-5.9v2.8h-12.2v5.1h3.1C244.8,17.1,244.8,19.2,244.8,19.2z
			 M264.2,21.3c0,0-0.7,1.1-2.2,1.6c-0.8,0.2-3.1,0.3-4.5,0.3s-3.5-0.1-4.3-0.3c-1.5-0.5-2.2-1.6-2.2-1.6c-0.5-0.8-0.5-2-0.5-2
			s0-1.3,0.5-2c0,0,0.7-1.1,2.2-1.6c0.8-0.2,2.9-0.3,4.3-0.3s3.7,0,4.5,0.3c1.5,0.5,2.2,1.6,2.2,1.6c0.5,0.8,0.5,2,0.5,2
			S264.7,20.5,264.2,21.3z"/>
	</g>
</g>
</svg>
